{"title":"Inception (Telugu) - BRRip - 720p - X264 - AC3 (5.1) - ICF  ","uid":6046500,"size":1559593223,"categoryP":"video","categoryS":"hd___movies","magnet":"?xt=urn:btih:7a18ebb30dfec203e0cb95c98ee34daf7d363ec0&amp;dn=Inception+%28Telugu%29+-+BRRip+-+720p+-+X264+-+AC3+%285.1%29+-+ICF++&amp;tr=udp%3A%2F%2Ftracker.openbittorrent.com%3A80&amp;tr=udp%3A%2F%2Fopen.demonii.com%3A1337&amp;tr=udp%3A%2F%2Ftracker.coppersurfer.tk%3A6969&amp;tr=udp%3A%2F%2Fexodus.desync.com%3A6969","seeders":3,"leechers":2,"uploader":"RajMahal","files":1,"time":1292575039,"description":"General\n\nFormat                           : Matroska\nFile size                        : 1.45 GiB\nDuration                         : 2h 22mn\nOverall bit rate                 : 1 464 Kbps\nEncoded date                     : UTC 2010-12-17 07:07:52\nWriting application              : mkvmerge v4.0.0 ('The Stars were mine') built on Jun  6 2010 16:18:42\nWriting library                  : libebml v1.0.0 + libmatroska v1.0.0\n\nSource        :             1080p @ Refined --Thank You\n\nAudio from Telugu VCD (Thanks To -PRANEETH-)\n\nEncoded by RajMahal @ Team ICF\n\n\nVideo\n\nID                               : 1\nFormat                           : AVC\nFormat/Info                      : Advanced Video Codec\nFormat profile                   : &lt;a class=&quot;__cf_email__&quot; href=&quot;/cdn-cgi/l/email-protection&quot; data-cfemail=&quot;632b0a040b232f574d52&quot;&gt;[email&amp;#160;protected]&lt;/a&gt;&lt;script cf-hash='f9e31' type=&quot;text/javascript&quot;&gt;\n/* &lt;![CDATA[ */!function(){try{var t=&quot;currentScript&quot;in document?document.currentScript:function(){for(var t=document.getElementsByTagName(&quot;script&quot;),e=t.length;e--;)if(t[e].getAttribute(&quot;cf-hash&quot;))return t[e]}();if(t&amp;&amp;t.previousSibling){var e,r,n,i,c=t.previousSibling,a=c.getAttribute(&quot;data-cfemail&quot;);if(a){for(e=&quot;&quot;,r=parseInt(a.substr(0,2),16),n=2;a.length-n;n+=2)i=parseInt(a.substr(n,2),16)^r,e+=String.fromCharCode(i);e=document.createTextNode(e),c.parentNode.replaceChild(e,c)}}}catch(u){}}();/* ]]&gt; */&lt;/script&gt;\nFormat settings, CABAC           : Yes\nFormat settings, ReFrames        : 3 frames\nCodec ID                         : V_MPEG4/ISO/AVC\nDuration                         : 2h 22mn\nBit rate mode                    : Variable\nBit rate                         : 1 273 Kbps\nMaximum bit rate                 : 5 000 Kbps\nWidth                            : 1 280 pixels\nHeight                           : 544 pixels\nDisplay aspect ratio             : 2.35:1\nFrame rate                       : 25.000 fps\nColor space                      : YUV\nChroma subsampling               : 4:2:0\nBit depth                        : 8 bits\nScan type                        : Progressive\nBits/(Pixel*Frame)               : 0.073\nStream size                      : 1.23 GiB (85%)\nWriting library                  : x264 core 98 r1649 20cbe10\n\nAudio Language : Telugu\n\nID                               : 2\nFormat                           : AC-3\nFormat/Info                      : Audio Coding 3\nMode extension                   : CM (complete main)\nCodec ID                         : A_AC3\nDuration                         : 2h 22mn\nBit rate mode                    : Constant\nBit rate                         : 192 Kbps\nChannel(s)                       : 6 channels\nChannel positions                : Front: L C R, Side: L R, LFE\nSampling rate                    : 48.0 KHz\nBit depth                        : 16 bits\nCompression mode                 : Lossy\nStream size                      : 195 MiB (13%)\n\n\nScreemShots :\n\n &lt;a href=&quot;\nhttp://img405.imageshack.us/img405/512/vlcsnap2010121708h20m06.png&quot; rel=&quot;nofollow&quot; target=&quot;_NEW&quot;&gt;\nhttp://img405.imageshack.us/img405/512/vlcsnap2010121708h20m06.png&lt;/a&gt; &lt;a href=&quot;\nhttp://img714.imageshack.us/img714/686/vlcsnap2010121708h20m49.png&quot; rel=&quot;nofollow&quot; target=&quot;_NEW&quot;&gt;\nhttp://img714.imageshack.us/img714/686/vlcsnap2010121708h20m49.png&lt;/a&gt; &lt;a href=&quot;\nhttp://img338.imageshack.us/img338/7866/vlcsnap2010121708h21m03.png&quot; rel=&quot;nofollow&quot; target=&quot;_NEW&quot;&gt;\nhttp://img338.imageshack.us/img338/7866/vlcsnap2010121708h21m03.png&lt;/a&gt; &lt;a href=&quot;\nhttp://img441.imageshack.us/img441/6097/vlcsnap2010121708h21m21.png&quot; rel=&quot;nofollow&quot; target=&quot;_NEW&quot;&gt;\nhttp://img441.imageshack.us/img441/6097/vlcsnap2010121708h21m21.png&lt;/a&gt; &lt;a href=&quot;\nhttp://img3.imageshack.us/img3/4080/vlcsnap2010121708h21m55.png&quot; rel=&quot;nofollow&quot; target=&quot;_NEW&quot;&gt;\nhttp://img3.imageshack.us/img3/4080/vlcsnap2010121708h21m55.png&lt;/a&gt; &lt;a href=&quot;\nhttp://img715.imageshack.us/img715/4164/vlcsnap2010121708h21m58.png&quot; rel=&quot;nofollow&quot; target=&quot;_NEW&quot;&gt;\nhttp://img715.imageshack.us/img715/4164/vlcsnap2010121708h21m58.png&lt;/a&gt; &lt;a href=&quot;\nhttp://img819.imageshack.us/img819/1296/vlcsnap2010121708h22m30.png&quot; rel=&quot;nofollow&quot; target=&quot;_NEW&quot;&gt;\nhttp://img819.imageshack.us/img819/1296/vlcsnap2010121708h22m30.png&lt;/a&gt; &lt;a href=&quot;\nhttp://img30.imageshack.us/img30/539/vlcsnap2010121708h22m33.png&quot; rel=&quot;nofollow&quot; target=&quot;_NEW&quot;&gt;\nhttp://img30.imageshack.us/img30/539/vlcsnap2010121708h22m33.png&lt;/a&gt; &lt;a href=&quot;\nhttp://img510.imageshack.us/img510/8563/vlcsnap2010121708h22m39.png&quot; rel=&quot;nofollow&quot; target=&quot;_NEW&quot;&gt;\nhttp://img510.imageshack.us/img510/8563/vlcsnap2010121708h22m39.png&lt;/a&gt; &lt;a href=&quot;\nhttp://img692.imageshack.us/img692/4403/vlcsnap2010121708h22m59.png&quot; rel=&quot;nofollow&quot; target=&quot;_NEW&quot;&gt;\nhttp://img692.imageshack.us/img692/4403/vlcsnap2010121708h22m59.png&lt;/a&gt; &lt;a href=&quot;\nhttp://img535.imageshack.us/img535/7707/vlcsnap2010121708h23m46.png&quot; rel=&quot;nofollow&quot; target=&quot;_NEW&quot;&gt;\nhttp://img535.imageshack.us/img535/7707/vlcsnap2010121708h23m46.png&lt;/a&gt; &lt;a href=&quot;\nhttp://img560.imageshack.us/img560/6333/vlcsnap2010121708h23m51.png&quot; rel=&quot;nofollow&quot; target=&quot;_NEW&quot;&gt;\nhttp://img560.imageshack.us/img560/6333/vlcsnap2010121708h23m51.png&lt;/a&gt; &lt;a href=&quot;\nhttp://img171.imageshack.us/img171/5570/vlcsnap2010121708h24m01.png&quot; rel=&quot;nofollow&quot; target=&quot;_NEW&quot;&gt;\nhttp://img171.imageshack.us/img171/5570/vlcsnap2010121708h24m01.png&lt;/a&gt; &lt;a href=&quot;\nhttp://img715.imageshack.us/img715/3131/vlcsnap2010121708h24m15.png&quot; rel=&quot;nofollow&quot; target=&quot;_NEW&quot;&gt;\nhttp://img715.imageshack.us/img715/3131/vlcsnap2010121708h24m15.png&lt;/a&gt; &lt;a href=&quot;\nhttp://img28.imageshack.us/img28/685/vlcsnap2010121708h24m37.png&quot; rel=&quot;nofollow&quot; target=&quot;_NEW&quot;&gt;\nhttp://img28.imageshack.us/img28/685/vlcsnap2010121708h24m37.png&lt;/a&gt;\n","torrent":{"xt":"urn:btih:7a18ebb30dfec203e0cb95c98ee34daf7d363ec0","amp;dn":"Inception+%28Telugu%29+-+BRRip+-+720p+-+X264+-+AC3+%285.1%29+-+ICF++","amp;tr":["udp%3A%2F%2Ftracker.openbittorrent.com%3A80","udp%3A%2F%2Fopen.demonii.com%3A1337","udp%3A%2F%2Ftracker.coppersurfer.tk%3A6969","udp%3A%2F%2Fexodus.desync.com%3A6969"],"infoHash":"7a18ebb30dfec203e0cb95c98ee34daf7d363ec0","infoHashBuffer":{"type":"Buffer","data":[122,24,235,179,13,254,194,3,224,203,149,201,142,227,77,175,125,54,62,192]},"announce":[],"urlList":[]}}